solid OpenSCAD_Model
  facet normal 0 0 -1
    outer loop
      vertex 3.2 -3.2 0
      vertex 2.5 0 0
      vertex 3.2 1.7 0
    endloop
  endfacet
  facet normal 0 0 -1
    outer loop
      vertex 3.2 -3.2 0
      vertex 2.42146 -0.621724 0
      vertex 2.5 0 0
    endloop
  endfacet
  facet normal 0 0 -1
    outer loop
      vertex 3.2 -3.2 0
      vertex 2.19077 -1.20438 0
      vertex 2.42146 -0.621724 0
    endloop
  endfacet
  facet normal 0 0 -1
    outer loop
      vertex 3.2 -3.2 0
      vertex 1.82242 -1.71137 0
      vertex 2.19077 -1.20438 0
    endloop
  endfacet
  facet normal 0 0 -1
    outer loop
      vertex 3.2 -3.2 0
      vertex 1.33957 -2.11082 0
      vertex 1.82242 -1.71137 0
    endloop
  endfacet
  facet normal 0 0 -1
    outer loop
      vertex 3.2 -3.2 0
      vertex 0.772542 -2.37764 0
      vertex 1.33957 -2.11082 0
    endloop
  endfacet
  facet normal 0 0 -1
    outer loop
      vertex 3.2 -3.2 0
      vertex 0.156976 -2.49507 0
      vertex 0.772542 -2.37764 0
    endloop
  endfacet
  facet normal 0 0 -1
    outer loop
      vertex -3.2 -3.2 0
      vertex 0.156976 -2.49507 0
      vertex 3.2 -3.2 0
    endloop
  endfacet
  facet normal -0 0 -1
    outer loop
      vertex -2.48029 -0.313333 0
      vertex -3.2 -3.2 0
      vertex -2.48029 0.313333 0
    endloop
  endfacet
  facet normal -0 0 -1
    outer loop
      vertex -2.32444 -0.920311 0
      vertex -3.2 -3.2 0
      vertex -2.48029 -0.313333 0
    endloop
  endfacet
  facet normal -0 0 -1
    outer loop
      vertex -2.02254 -1.46946 0
      vertex -3.2 -3.2 0
      vertex -2.32444 -0.920311 0
    endloop
  endfacet
  facet normal -0 0 -1
    outer loop
      vertex -1.59356 -1.92628 0
      vertex -3.2 -3.2 0
      vertex -2.02254 -1.46946 0
    endloop
  endfacet
  facet normal -0 0 -1
    outer loop
      vertex -1.06445 -2.26207 0
      vertex -3.2 -3.2 0
      vertex -1.59356 -1.92628 0
    endloop
  endfacet
  facet normal -0 0 -1
    outer loop
      vertex -0.468452 -2.45572 0
      vertex -3.2 -3.2 0
      vertex -1.06445 -2.26207 0
    endloop
  endfacet
  facet normal -0 0 -1
    outer loop
      vertex 0.156976 -2.49507 0
      vertex -3.2 -3.2 0
      vertex -0.468452 -2.45572 0
    endloop
  endfacet
  facet normal 0 0 -1
    outer loop
      vertex 3.2 1.7 0
      vertex 6.2 3.2 0
      vertex 6.2 1.7 0
    endloop
  endfacet
  facet normal 0 0 -1
    outer loop
      vertex 2.42146 0.621724 0
      vertex 3.2 1.7 0
      vertex 2.5 0 0
    endloop
  endfacet
  facet normal 0 0 -1
    outer loop
      vertex 2.19077 1.20438 0
      vertex 3.2 1.7 0
      vertex 2.42146 0.621724 0
    endloop
  endfacet
  facet normal 0 0 -1
    outer loop
      vertex 1.82242 1.71137 0
      vertex 3.2 1.7 0
      vertex 2.19077 1.20438 0
    endloop
  endfacet
  facet normal 0 0 -1
    outer loop
      vertex 1.33957 2.11082 0
      vertex 3.2 1.7 0
      vertex 1.82242 1.71137 0
    endloop
  endfacet
  facet normal 0 0 -1
    outer loop
      vertex 3.2 1.7 0
      vertex 1.33957 2.11082 0
      vertex 6.2 3.2 0
    endloop
  endfacet
  facet normal 0 0 -1
    outer loop
      vertex 0.772542 2.37764 0
      vertex 6.2 3.2 0
      vertex 1.33957 2.11082 0
    endloop
  endfacet
  facet normal 0 0 -1
    outer loop
      vertex 0.156976 2.49507 0
      vertex 6.2 3.2 0
      vertex 0.772542 2.37764 0
    endloop
  endfacet
  facet normal 0 0 -1
    outer loop
      vertex -3.2 3.2 0
      vertex 0.156976 2.49507 0
      vertex -0.468452 2.45572 0
    endloop
  endfacet
  facet normal 0 0 -1
    outer loop
      vertex 0.156976 2.49507 0
      vertex -3.2 3.2 0
      vertex 6.2 3.2 0
    endloop
  endfacet
  facet normal 0 0 -1
    outer loop
      vertex -1.06445 2.26207 0
      vertex -3.2 3.2 0
      vertex -0.468452 2.45572 0
    endloop
  endfacet
  facet normal 0 0 -1
    outer loop
      vertex -1.59356 1.92628 0
      vertex -3.2 3.2 0
      vertex -1.06445 2.26207 0
    endloop
  endfacet
  facet normal 0 0 -1
    outer loop
      vertex -2.02254 1.46946 0
      vertex -3.2 3.2 0
      vertex -1.59356 1.92628 0
    endloop
  endfacet
  facet normal 0 0 -1
    outer loop
      vertex -2.32444 0.920311 0
      vertex -3.2 3.2 0
      vertex -2.02254 1.46946 0
    endloop
  endfacet
  facet normal 0 0 -1
    outer loop
      vertex -2.48029 0.313333 0
      vertex -3.2 3.2 0
      vertex -2.32444 0.920311 0
    endloop
  endfacet
  facet normal 0 0 -1
    outer loop
      vertex -3.2 3.2 0
      vertex -2.48029 0.313333 0
      vertex -3.2 -3.2 0
    endloop
  endfacet
  facet normal 1 0 0
    outer loop
      vertex 3.2 3.2 90
      vertex 3.2 1.7 2
      vertex 3.2 3.2 2
    endloop
  endfacet
  facet normal 1 -0 0
    outer loop
      vertex 3.2 -3.2 90
      vertex 3.2 1.7 2
      vertex 3.2 3.2 90
    endloop
  endfacet
  facet normal 1 0 0
    outer loop
      vertex 3.2 -3.2 0
      vertex 3.2 1.7 2
      vertex 3.2 -3.2 90
    endloop
  endfacet
  facet normal 1 0 0
    outer loop
      vertex 3.2 1.7 2
      vertex 3.2 -3.2 0
      vertex 3.2 1.7 0
    endloop
  endfacet
  facet normal -1 0 0
    outer loop
      vertex -3.2 -3.2 0
      vertex -3.2 3.2 90
      vertex -3.2 3.2 0
    endloop
  endfacet
  facet normal -1 -0 0
    outer loop
      vertex -3.2 3.2 90
      vertex -3.2 -3.2 0
      vertex -3.2 -3.2 90
    endloop
  endfacet
  facet normal 0 -1 0
    outer loop
      vertex -3.2 -3.2 0
      vertex 3.2 -3.2 90
      vertex -3.2 -3.2 90
    endloop
  endfacet
  facet normal 0 -1 -0
    outer loop
      vertex 3.2 -3.2 90
      vertex -3.2 -3.2 0
      vertex 3.2 -3.2 0
    endloop
  endfacet
  facet normal 0 1 0
    outer loop
      vertex 6.2 3.2 2
      vertex 6.2 3.2 0
      vertex 3.2 3.2 2
    endloop
  endfacet
  facet normal 0 1 -0
    outer loop
      vertex 3.2 3.2 2
      vertex -3.2 3.2 90
      vertex 3.2 3.2 90
    endloop
  endfacet
  facet normal 0 1 0
    outer loop
      vertex 3.2 3.2 2
      vertex -3.2 3.2 0
      vertex -3.2 3.2 90
    endloop
  endfacet
  facet normal 0 1 0
    outer loop
      vertex -3.2 3.2 0
      vertex 3.2 3.2 2
      vertex 6.2 3.2 0
    endloop
  endfacet
  facet normal -0 0 1
    outer loop
      vertex -3.2 3.2 90
      vertex 3.2 -3.2 90
      vertex 3.2 3.2 90
    endloop
  endfacet
  facet normal 0 0 1
    outer loop
      vertex 3.2 -3.2 90
      vertex -3.2 3.2 90
      vertex -3.2 -3.2 90
    endloop
  endfacet
  facet normal -0.992115 0.12533 0
    outer loop
      vertex 2.42146 -0.621724 0
      vertex 2.5 0 5
      vertex 2.5 0 0
    endloop
  endfacet
  facet normal -0.992115 0.12533 0
    outer loop
      vertex 2.5 0 5
      vertex 2.42146 -0.621724 0
      vertex 2.42146 -0.621724 5
    endloop
  endfacet
  facet normal -0.992115 -0.12533 0
    outer loop
      vertex 2.5 0 0
      vertex 2.42146 0.621724 5
      vertex 2.42146 0.621724 0
    endloop
  endfacet
  facet normal -0.992115 -0.12533 0
    outer loop
      vertex 2.42146 0.621724 5
      vertex 2.5 0 0
      vertex 2.5 0 5
    endloop
  endfacet
  facet normal 0.968581 -0.248697 0
    outer loop
      vertex -2.48029 0.313333 5
      vertex -2.32444 0.920311 0
      vertex -2.32444 0.920311 5
    endloop
  endfacet
  facet normal 0.968581 -0.248697 0
    outer loop
      vertex -2.32444 0.920311 0
      vertex -2.48029 0.313333 5
      vertex -2.48029 0.313333 0
    endloop
  endfacet
  facet normal -0.637426 -0.770512 0
    outer loop
      vertex 1.33957 2.11082 0
      vertex 1.82242 1.71137 5
      vertex 1.33957 2.11082 5
    endloop
  endfacet
  facet normal -0.637426 -0.770512 -0
    outer loop
      vertex 1.82242 1.71137 5
      vertex 1.33957 2.11082 0
      vertex 1.82242 1.71137 0
    endloop
  endfacet
  facet normal 0.728971 0.684545 0
    outer loop
      vertex -1.59356 -1.92628 5
      vertex -2.02254 -1.46946 0
      vertex -2.02254 -1.46946 5
    endloop
  endfacet
  facet normal 0.728971 0.684545 0
    outer loop
      vertex -2.02254 -1.46946 0
      vertex -1.59356 -1.92628 5
      vertex -1.59356 -1.92628 0
    endloop
  endfacet
  facet normal -0.637426 0.770512 0
    outer loop
      vertex 1.82242 -1.71137 0
      vertex 1.33957 -2.11082 5
      vertex 1.82242 -1.71137 5
    endloop
  endfacet
  facet normal -0.637426 0.770512 0
    outer loop
      vertex 1.33957 -2.11082 5
      vertex 1.82242 -1.71137 0
      vertex 1.33957 -2.11082 0
    endloop
  endfacet
  facet normal 1 -0 0
    outer loop
      vertex -2.48029 -0.313333 5
      vertex -2.48029 0.313333 0
      vertex -2.48029 0.313333 5
    endloop
  endfacet
  facet normal 1 0 0
    outer loop
      vertex -2.48029 0.313333 0
      vertex -2.48029 -0.313333 5
      vertex -2.48029 -0.313333 0
    endloop
  endfacet
  facet normal 0.876305 0.481757 0
    outer loop
      vertex -2.02254 -1.46946 5
      vertex -2.32444 -0.920311 0
      vertex -2.32444 -0.920311 5
    endloop
  endfacet
  facet normal 0.876305 0.481757 0
    outer loop
      vertex -2.32444 -0.920311 0
      vertex -2.02254 -1.46946 5
      vertex -2.02254 -1.46946 0
    endloop
  endfacet
  facet normal 0.535834 0.844323 -0
    outer loop
      vertex -1.06445 -2.26207 0
      vertex -1.59356 -1.92628 5
      vertex -1.06445 -2.26207 5
    endloop
  endfacet
  facet normal 0.535834 0.844323 0
    outer loop
      vertex -1.59356 -1.92628 5
      vertex -1.06445 -2.26207 0
      vertex -1.59356 -1.92628 0
    endloop
  endfacet
  facet normal 0.0627928 0.998027 -0
    outer loop
      vertex 0.156976 -2.49507 0
      vertex -0.468452 -2.45572 5
      vertex 0.156976 -2.49507 5
    endloop
  endfacet
  facet normal 0.0627928 0.998027 0
    outer loop
      vertex -0.468452 -2.45572 5
      vertex 0.156976 -2.49507 0
      vertex -0.468452 -2.45572 0
    endloop
  endfacet
  facet normal -0.425775 0.904829 0
    outer loop
      vertex 1.33957 -2.11082 0
      vertex 0.772542 -2.37764 5
      vertex 1.33957 -2.11082 5
    endloop
  endfacet
  facet normal -0.425775 0.904829 0
    outer loop
      vertex 0.772542 -2.37764 5
      vertex 1.33957 -2.11082 0
      vertex 0.772542 -2.37764 0
    endloop
  endfacet
  facet normal -0.809017 0.587785 0
    outer loop
      vertex 1.82242 -1.71137 0
      vertex 2.19077 -1.20438 5
      vertex 2.19077 -1.20438 0
    endloop
  endfacet
  facet normal -0.809017 0.587785 0
    outer loop
      vertex 2.19077 -1.20438 5
      vertex 1.82242 -1.71137 0
      vertex 1.82242 -1.71137 5
    endloop
  endfacet
  facet normal 0.535834 -0.844323 0
    outer loop
      vertex -1.59356 1.92628 0
      vertex -1.06445 2.26207 5
      vertex -1.59356 1.92628 5
    endloop
  endfacet
  facet normal 0.535834 -0.844323 0
    outer loop
      vertex -1.06445 2.26207 5
      vertex -1.59356 1.92628 0
      vertex -1.06445 2.26207 0
    endloop
  endfacet
  facet normal 0.309015 -0.951057 0
    outer loop
      vertex -1.06445 2.26207 0
      vertex -0.468452 2.45572 5
      vertex -1.06445 2.26207 5
    endloop
  endfacet
  facet normal 0.309015 -0.951057 0
    outer loop
      vertex -0.468452 2.45572 5
      vertex -1.06445 2.26207 0
      vertex -0.468452 2.45572 0
    endloop
  endfacet
  facet normal 0.968581 0.248697 0
    outer loop
      vertex -2.32444 -0.920311 5
      vertex -2.48029 -0.313333 0
      vertex -2.48029 -0.313333 5
    endloop
  endfacet
  facet normal 0.968581 0.248697 0
    outer loop
      vertex -2.48029 -0.313333 0
      vertex -2.32444 -0.920311 5
      vertex -2.32444 -0.920311 0
    endloop
  endfacet
  facet normal 0 0 -1
    outer loop
      vertex 2.42146 -0.621724 5
      vertex 2.42146 0.621724 5
      vertex 2.5 0 5
    endloop
  endfacet
  facet normal 0 0 -1
    outer loop
      vertex 2.19077 -1.20438 5
      vertex 2.42146 0.621724 5
      vertex 2.42146 -0.621724 5
    endloop
  endfacet
  facet normal 0 0 -1
    outer loop
      vertex 2.19077 -1.20438 5
      vertex 2.19077 1.20438 5
      vertex 2.42146 0.621724 5
    endloop
  endfacet
  facet normal 0 0 -1
    outer loop
      vertex 1.82242 -1.71137 5
      vertex 2.19077 1.20438 5
      vertex 2.19077 -1.20438 5
    endloop
  endfacet
  facet normal 0 0 -1
    outer loop
      vertex 1.82242 -1.71137 5
      vertex 1.82242 1.71137 5
      vertex 2.19077 1.20438 5
    endloop
  endfacet
  facet normal 0 0 -1
    outer loop
      vertex 1.33957 -2.11082 5
      vertex 1.82242 1.71137 5
      vertex 1.82242 -1.71137 5
    endloop
  endfacet
  facet normal 0 0 -1
    outer loop
      vertex 1.33957 -2.11082 5
      vertex 1.33957 2.11082 5
      vertex 1.82242 1.71137 5
    endloop
  endfacet
  facet normal 0 0 -1
    outer loop
      vertex 0.772542 -2.37764 5
      vertex 1.33957 2.11082 5
      vertex 1.33957 -2.11082 5
    endloop
  endfacet
  facet normal 0 0 -1
    outer loop
      vertex 0.772542 -2.37764 5
      vertex 0.772542 2.37764 5
      vertex 1.33957 2.11082 5
    endloop
  endfacet
  facet normal 0 0 -1
    outer loop
      vertex 0.156976 -2.49507 5
      vertex 0.772542 2.37764 5
      vertex 0.772542 -2.37764 5
    endloop
  endfacet
  facet normal 0 0 -1
    outer loop
      vertex 0.156976 -2.49507 5
      vertex 0.156976 2.49507 5
      vertex 0.772542 2.37764 5
    endloop
  endfacet
  facet normal 0 0 -1
    outer loop
      vertex -0.468452 -2.45572 5
      vertex 0.156976 2.49507 5
      vertex 0.156976 -2.49507 5
    endloop
  endfacet
  facet normal 0 0 -1
    outer loop
      vertex -0.468452 -2.45572 5
      vertex -0.468452 2.45572 5
      vertex 0.156976 2.49507 5
    endloop
  endfacet
  facet normal 0 0 -1
    outer loop
      vertex -1.06445 -2.26207 5
      vertex -0.468452 2.45572 5
      vertex -0.468452 -2.45572 5
    endloop
  endfacet
  facet normal 0 0 -1
    outer loop
      vertex -1.06445 -2.26207 5
      vertex -1.06445 2.26207 5
      vertex -0.468452 2.45572 5
    endloop
  endfacet
  facet normal 0 0 -1
    outer loop
      vertex -1.59356 -1.92628 5
      vertex -1.06445 2.26207 5
      vertex -1.06445 -2.26207 5
    endloop
  endfacet
  facet normal 0 0 -1
    outer loop
      vertex -1.59356 -1.92628 5
      vertex -1.59356 1.92628 5
      vertex -1.06445 2.26207 5
    endloop
  endfacet
  facet normal 0 0 -1
    outer loop
      vertex -2.02254 -1.46946 5
      vertex -1.59356 1.92628 5
      vertex -1.59356 -1.92628 5
    endloop
  endfacet
  facet normal 0 0 -1
    outer loop
      vertex -2.02254 -1.46946 5
      vertex -2.02254 1.46946 5
      vertex -1.59356 1.92628 5
    endloop
  endfacet
  facet normal 0 0 -1
    outer loop
      vertex -2.32444 -0.920311 5
      vertex -2.02254 1.46946 5
      vertex -2.02254 -1.46946 5
    endloop
  endfacet
  facet normal 0 0 -1
    outer loop
      vertex -2.32444 -0.920311 5
      vertex -2.32444 0.920311 5
      vertex -2.02254 1.46946 5
    endloop
  endfacet
  facet normal 0 0 -1
    outer loop
      vertex -2.48029 -0.313333 5
      vertex -2.32444 0.920311 5
      vertex -2.32444 -0.920311 5
    endloop
  endfacet
  facet normal 0 0 -1
    outer loop
      vertex -2.32444 0.920311 5
      vertex -2.48029 -0.313333 5
      vertex -2.48029 0.313333 5
    endloop
  endfacet
  facet normal 0.309015 0.951057 -0
    outer loop
      vertex -0.468452 -2.45572 0
      vertex -1.06445 -2.26207 5
      vertex -0.468452 -2.45572 5
    endloop
  endfacet
  facet normal 0.309015 0.951057 0
    outer loop
      vertex -1.06445 -2.26207 5
      vertex -0.468452 -2.45572 0
      vertex -1.06445 -2.26207 0
    endloop
  endfacet
  facet normal -0.187388 0.982286 0
    outer loop
      vertex 0.772542 -2.37764 0
      vertex 0.156976 -2.49507 5
      vertex 0.772542 -2.37764 5
    endloop
  endfacet
  facet normal -0.187388 0.982286 0
    outer loop
      vertex 0.156976 -2.49507 5
      vertex 0.772542 -2.37764 0
      vertex 0.156976 -2.49507 0
    endloop
  endfacet
  facet normal -0.929776 0.368125 0
    outer loop
      vertex 2.19077 -1.20438 0
      vertex 2.42146 -0.621724 5
      vertex 2.42146 -0.621724 0
    endloop
  endfacet
  facet normal -0.929776 0.368125 0
    outer loop
      vertex 2.42146 -0.621724 5
      vertex 2.19077 -1.20438 0
      vertex 2.19077 -1.20438 5
    endloop
  endfacet
  facet normal 0.876305 -0.481757 0
    outer loop
      vertex -2.32444 0.920311 5
      vertex -2.02254 1.46946 0
      vertex -2.02254 1.46946 5
    endloop
  endfacet
  facet normal 0.876305 -0.481757 0
    outer loop
      vertex -2.02254 1.46946 0
      vertex -2.32444 0.920311 5
      vertex -2.32444 0.920311 0
    endloop
  endfacet
  facet normal 0.728971 -0.684545 0
    outer loop
      vertex -2.02254 1.46946 5
      vertex -1.59356 1.92628 0
      vertex -1.59356 1.92628 5
    endloop
  endfacet
  facet normal 0.728971 -0.684545 0
    outer loop
      vertex -1.59356 1.92628 0
      vertex -2.02254 1.46946 5
      vertex -2.02254 1.46946 0
    endloop
  endfacet
  facet normal -0.425775 -0.904829 0
    outer loop
      vertex 0.772542 2.37764 0
      vertex 1.33957 2.11082 5
      vertex 0.772542 2.37764 5
    endloop
  endfacet
  facet normal -0.425775 -0.904829 -0
    outer loop
      vertex 1.33957 2.11082 5
      vertex 0.772542 2.37764 0
      vertex 1.33957 2.11082 0
    endloop
  endfacet
  facet normal -0.187388 -0.982286 0
    outer loop
      vertex 0.156976 2.49507 0
      vertex 0.772542 2.37764 5
      vertex 0.156976 2.49507 5
    endloop
  endfacet
  facet normal -0.187388 -0.982286 -0
    outer loop
      vertex 0.772542 2.37764 5
      vertex 0.156976 2.49507 0
      vertex 0.772542 2.37764 0
    endloop
  endfacet
  facet normal 0.0627928 -0.998027 0
    outer loop
      vertex -0.468452 2.45572 0
      vertex 0.156976 2.49507 5
      vertex -0.468452 2.45572 5
    endloop
  endfacet
  facet normal 0.0627928 -0.998027 0
    outer loop
      vertex 0.156976 2.49507 5
      vertex -0.468452 2.45572 0
      vertex 0.156976 2.49507 0
    endloop
  endfacet
  facet normal -0.809017 -0.587785 0
    outer loop
      vertex 2.19077 1.20438 0
      vertex 1.82242 1.71137 5
      vertex 1.82242 1.71137 0
    endloop
  endfacet
  facet normal -0.809017 -0.587785 0
    outer loop
      vertex 1.82242 1.71137 5
      vertex 2.19077 1.20438 0
      vertex 2.19077 1.20438 5
    endloop
  endfacet
  facet normal -0.929776 -0.368125 0
    outer loop
      vertex 2.42146 0.621724 0
      vertex 2.19077 1.20438 5
      vertex 2.19077 1.20438 0
    endloop
  endfacet
  facet normal -0.929776 -0.368125 0
    outer loop
      vertex 2.19077 1.20438 5
      vertex 2.42146 0.621724 0
      vertex 2.42146 0.621724 5
    endloop
  endfacet
  facet normal 1 -0 0
    outer loop
      vertex 6.2 1.7 2
      vertex 6.2 3.2 0
      vertex 6.2 3.2 2
    endloop
  endfacet
  facet normal 1 0 0
    outer loop
      vertex 6.2 3.2 0
      vertex 6.2 1.7 2
      vertex 6.2 1.7 0
    endloop
  endfacet
  facet normal 0 -1 0
    outer loop
      vertex 3.2 1.7 0
      vertex 6.2 1.7 2
      vertex 3.2 1.7 2
    endloop
  endfacet
  facet normal 0 -1 -0
    outer loop
      vertex 6.2 1.7 2
      vertex 3.2 1.7 0
      vertex 6.2 1.7 0
    endloop
  endfacet
  facet normal -0 0 1
    outer loop
      vertex 3.2 3.2 2
      vertex 6.2 1.7 2
      vertex 6.2 3.2 2
    endloop
  endfacet
  facet normal 0 0 1
    outer loop
      vertex 6.2 1.7 2
      vertex 3.2 3.2 2
      vertex 3.2 1.7 2
    endloop
  endfacet
endsolid OpenSCAD_Model
