solid OpenSCAD_Model
  facet normal 0 0 -1
    outer loop
      vertex 2.35 -2.35 0
      vertex -2.35 -2.35 0
      vertex 2.35 0.849999 0
    endloop
  endfacet
  facet normal 0 0 -1
    outer loop
      vertex 2.35 0.849999 0
      vertex 5.35 2.35 0
      vertex 5.35 0.849999 0
    endloop
  endfacet
  facet normal 0 0 -1
    outer loop
      vertex 2.35 0.849999 0
      vertex -2.35 2.35 0
      vertex 5.35 2.35 0
    endloop
  endfacet
  facet normal 0 0 -1
    outer loop
      vertex -2.35 2.35 0
      vertex 2.35 0.849999 0
      vertex -2.35 -2.35 0
    endloop
  endfacet
  facet normal 1 0 0
    outer loop
      vertex 2.35 2.35 90
      vertex 2.35 0.849999 2
      vertex 2.35 2.35 2
    endloop
  endfacet
  facet normal 1 -0 0
    outer loop
      vertex 2.35 -2.35 90
      vertex 2.35 0.849999 2
      vertex 2.35 2.35 90
    endloop
  endfacet
  facet normal 1 0 0
    outer loop
      vertex 2.35 -2.35 0
      vertex 2.35 0.849999 2
      vertex 2.35 -2.35 90
    endloop
  endfacet
  facet normal 1 0 0
    outer loop
      vertex 2.35 0.849999 2
      vertex 2.35 -2.35 0
      vertex 2.35 0.849999 0
    endloop
  endfacet
  facet normal -1 0 0
    outer loop
      vertex -2.35 -2.35 0
      vertex -2.35 2.35 90
      vertex -2.35 2.35 0
    endloop
  endfacet
  facet normal -1 -0 0
    outer loop
      vertex -2.35 2.35 90
      vertex -2.35 -2.35 0
      vertex -2.35 -2.35 90
    endloop
  endfacet
  facet normal 0 -1 0
    outer loop
      vertex -2.35 -2.35 0
      vertex 2.35 -2.35 90
      vertex -2.35 -2.35 90
    endloop
  endfacet
  facet normal 0 -1 -0
    outer loop
      vertex 2.35 -2.35 90
      vertex -2.35 -2.35 0
      vertex 2.35 -2.35 0
    endloop
  endfacet
  facet normal 0 1 0
    outer loop
      vertex 5.35 2.35 2
      vertex 5.35 2.35 0
      vertex 2.35 2.35 2
    endloop
  endfacet
  facet normal 0 1 -0
    outer loop
      vertex 2.35 2.35 2
      vertex -2.35 2.35 90
      vertex 2.35 2.35 90
    endloop
  endfacet
  facet normal 0 1 0
    outer loop
      vertex 2.35 2.35 2
      vertex -2.35 2.35 0
      vertex -2.35 2.35 90
    endloop
  endfacet
  facet normal 0 1 0
    outer loop
      vertex -2.35 2.35 0
      vertex 2.35 2.35 2
      vertex 5.35 2.35 0
    endloop
  endfacet
  facet normal -0 0 1
    outer loop
      vertex -2.35 2.35 90
      vertex 2.35 -2.35 90
      vertex 2.35 2.35 90
    endloop
  endfacet
  facet normal 0 0 1
    outer loop
      vertex 2.35 -2.35 90
      vertex -2.35 2.35 90
      vertex -2.35 -2.35 90
    endloop
  endfacet
  facet normal 1 -0 0
    outer loop
      vertex 5.35 0.849999 2
      vertex 5.35 2.35 0
      vertex 5.35 2.35 2
    endloop
  endfacet
  facet normal 1 0 0
    outer loop
      vertex 5.35 2.35 0
      vertex 5.35 0.849999 2
      vertex 5.35 0.849999 0
    endloop
  endfacet
  facet normal 0 -1 0
    outer loop
      vertex 2.35 0.849999 0
      vertex 5.35 0.849999 2
      vertex 2.35 0.849999 2
    endloop
  endfacet
  facet normal 0 -1 -0
    outer loop
      vertex 5.35 0.849999 2
      vertex 2.35 0.849999 0
      vertex 5.35 0.849999 0
    endloop
  endfacet
  facet normal -0 0 1
    outer loop
      vertex 2.35 2.35 2
      vertex 5.35 0.849999 2
      vertex 5.35 2.35 2
    endloop
  endfacet
  facet normal 0 0 1
    outer loop
      vertex 5.35 0.849999 2
      vertex 2.35 2.35 2
      vertex 2.35 0.849999 2
    endloop
  endfacet
endsolid OpenSCAD_Model
